<svg width="37" height="22" viewBox="0 0 37 22" fill="none" xmlns="http://www.w3.org/2000/svg">
<path d="M18.2605 18.9676L17.5534 19.6747H17.5534L18.2605 18.9676ZM2 2.70711L1.29289 2L0.585786 2.70711L1.29289 3.41421L2 2.70711ZM18.9676 19.6747L18.2605 20.3818L18.9676 21.0889L19.6747 20.3818L18.9676 19.6747ZM35.228 3.41421L35.9351 4.12132L36.6422 3.41421L35.9351 2.70711L35.228 3.41421ZM34.5209 2.70711L35.228 2L34.5209 1.29289L33.8138 2L34.5209 2.70711ZM18.9676 18.2605L18.2605 18.9676L18.9676 19.6747L19.6747 18.9676L18.9676 18.2605ZM2.70711 2L3.41421 1.29289L2.70711 0.585786L2 1.29289L2.70711 2ZM18.9676 18.2605L2.70711 2L1.29289 3.41421L17.5534 19.6747L18.9676 18.2605ZM19.6747 18.9676L18.9676 18.2605L17.5534 19.6747L18.2605 20.3818L19.6747 18.9676ZM34.5209 2.70711L18.2605 18.9676L19.6747 20.3818L35.9351 4.12132L34.5209 2.70711ZM33.8138 3.41421L34.5209 4.12132L35.9351 2.70711L35.228 2L33.8138 3.41421ZM19.6747 18.9676L35.228 3.41421L33.8138 2L18.2605 17.5534L19.6747 18.9676ZM2 2.70711L18.2605 18.9676L19.6747 17.5534L3.41421 1.29289L2 2.70711ZM2.70711 3.41421L3.41421 2.70711L2 1.29289L1.29289 2L2.70711 3.41421Z" fill="white"/>
</svg>
